<svg xmlns="http://www.w3.org/2000/svg" xmlns:svg="http://www.w3.org/2000/svg" viewBox="0 0.31 32.52 31.69">
 <g>
  <path d="m0,16.08c0,-8.81 6.35,-15.77 16.03,-15.77c9.68,0 16.03,6.96 16.03,15.77c0,3.17 -0.85,6.1 -2.25,8.5l2.71,2.32l-4.41,5.1l-2.94,-2.63c-2.48,1.55 -5.58,2.48 -9.06,2.48c-9.76,0.07 -16.11,-6.81 -16.11,-15.77zm7.74,0c0,5.1 3.41,8.89 8.21,8.89c1.16,0 2.32,-0.24 3.25,-0.62l-2.55,-2.24l4.33,-5.03l2.64,2.32c0.31,-1 0.54,-2.09 0.54,-3.25c0,-5.02 -3.33,-8.81 -8.21,-8.81c-4.88,0 -8.21,3.71 -8.21,8.74z" fill="#316FEA" id="svg_1"/>
 </g>
</svg>